<svg width="65" height="65" viewBox="0 0 65 65" fill="none" xmlns="http://www.w3.org/2000/svg">
<path d="M63.7743 29.6044L35.3946 1.22582C33.7612 -0.408606 31.1104 -0.408606 29.475 1.22582L23.5818 7.11909L31.0576 14.595C32.7948 14.0079 34.787 14.4018 36.1718 15.7866C37.5632 17.1803 37.9542 19.1895 37.353 20.9324L44.5576 28.1373C46.3007 27.5368 48.3118 27.9253 49.704 29.3198C51.6497 31.2648 51.6497 34.4171 49.704 36.3633C47.7578 38.3098 44.6056 38.3098 42.6584 36.3633C41.1948 34.8982 40.8333 32.7489 41.5742 30.9458L34.8553 24.2269L34.8545 41.9085C35.3416 42.1493 35.7864 42.4674 36.1718 42.8505C38.1175 44.7954 38.1175 47.948 36.1718 49.8957C34.2256 51.8412 31.0718 51.8412 29.1284 49.8957C27.1827 47.948 27.1827 44.7957 29.1284 42.8507C29.5947 42.3842 30.1488 42.0147 30.7588 41.7637V23.9173C30.1479 23.668 29.5935 23.2983 29.1284 22.8303C27.6543 21.3582 27.2998 19.1951 28.0552 17.385L20.6858 10.0147L1.22637 29.4732C-0.40879 31.1091 -0.40879 33.7602 1.22637 35.3949L29.6065 63.774C31.2404 65.4087 33.8907 65.4087 35.5266 63.774L63.774 35.5266C65.4087 33.8915 65.4087 31.2389 63.774 29.6044" fill="#8AFFC7"/>
</svg>
