<svg width="65" height="65" viewBox="0 0 65 65" fill="none" xmlns="http://www.w3.org/2000/svg">
<path d="M65 0H0V65H65V0Z" fill="#8AFFC7"/>
<path d="M26.7963 40.6146H36.7384V37.9097H29.8666V33.7184H36.2023V31.0136H29.8666V27.0903H36.7384V24.3854H26.7963V40.6146ZM50.0191 36.204C50.0191 32.963 49.7997 32.2563 45.4379 31.2085C42.6355 30.5262 42.5868 30.4775 42.5868 28.6255C42.5868 27.2121 42.9523 26.7735 45.0236 26.7735C46.4369 26.7735 48.0209 26.9685 49.3611 27.2609L49.7023 24.6779C48.094 24.3123 46.3882 24.1418 44.9749 24.1418C40.8567 24.1418 39.5164 25.6038 39.5164 28.5524C39.5164 31.9883 40.0525 32.7437 43.9758 33.6209C46.8999 34.2545 46.9487 34.4007 46.9487 36.204C46.9487 37.7635 46.5832 38.2265 44.3657 38.2265C42.7574 38.2265 41.2953 37.9341 39.7845 37.4711L39.2484 39.8835C40.3206 40.3953 42.4649 40.8583 44.3169 40.8583C49.1174 40.8583 50.0191 39.2743 50.0191 36.204ZM55.6725 30.1607C55.6725 27.6751 56.8665 27.1878 59.7419 27.1878C60.2537 27.1878 61.3258 27.2609 62.0325 27.4071L62.2275 24.9215C61.4964 24.751 60.3268 24.6291 59.4251 24.6291C54.9901 24.6291 52.6995 25.9937 52.6995 30.2825V36.204C52.6995 39.0063 53.5281 40.8583 57.7194 40.8583C61.5452 40.8583 62.7148 38.9576 62.7148 36.4233V35.2536C62.7148 32.4513 61.5208 31.2329 58.5723 31.2329C57.5244 31.2329 56.5253 31.3791 55.6725 31.6715V30.1607ZM58.1093 33.7915C59.1815 33.7915 59.7419 34.157 59.7419 35.3267V36.5207C59.7419 37.7635 59.2546 38.2996 57.7194 38.2996C56.1842 38.2996 55.6725 37.861 55.6725 36.5207V34.3032C56.3548 34.0108 57.232 33.7915 58.1093 33.7915Z" fill="#272727"/>
</svg>
