<svg width="81" height="72" viewBox="0 0 81 72" fill="none" xmlns="http://www.w3.org/2000/svg">
<g clip-path="url(#clip0_26_3)">
<path d="M40.5 43.2128C44.4873 43.2128 47.7196 39.9835 47.7196 36C47.7196 32.0164 44.4873 28.7871 40.5 28.7871C36.5128 28.7871 33.2805 32.0164 33.2805 36C33.2805 39.9835 36.5128 43.2128 40.5 43.2128Z" fill="#8AFFC7"/>
<path d="M40.5 50.7775C61.895 50.7775 79.2391 44.1614 79.2391 36C79.2391 27.8386 61.895 21.2224 40.5 21.2224C19.105 21.2224 1.76086 27.8386 1.76086 36C1.76086 44.1614 19.105 50.7775 40.5 50.7775Z" stroke="#8AFFC7"/>
<path d="M27.6903 43.3888C38.3879 61.9002 52.795 73.5985 59.8695 69.5178C66.9441 65.4371 64.0071 47.1226 53.3096 28.6112C42.6121 10.0998 28.205 -1.59858 21.1304 2.48212C14.0558 6.56283 16.9928 24.8774 27.6903 43.3888Z" stroke="#8AFFC7"/>
<path d="M27.6903 28.6112C16.9928 47.1226 14.0559 65.4372 21.1304 69.5179C28.205 73.5986 42.6121 61.9002 53.3096 43.3888C64.0072 24.8774 66.9441 6.56285 59.8696 2.48214C52.795 -1.59857 38.3879 10.0998 27.6903 28.6112Z" stroke="#8AFFC7"/>
</g>
<defs>
<clipPath id="clip0_26_3">
<rect width="81" height="72" fill="white"/>
</clipPath>
</defs>
</svg>
